<svg width="122" height="36" viewBox="0 0 122 36" fill="none" xmlns="http://www.w3.org/2000/svg">
<path d="M12.192 26H15.552V9.248H12.192V16.136H5.016V9.248H1.656V26H5.016V18.872H12.192V26ZM24.5711 15.248C26.2991 15.248 27.6911 16.352 27.7391 18.104H21.4271C21.6911 16.28 22.9631 15.248 24.5711 15.248ZM30.8831 21.824H27.2591C26.8271 22.712 26.0351 23.432 24.5951 23.432C22.9151 23.432 21.5711 22.328 21.4031 20.36H31.1231C31.1951 19.928 31.2191 19.496 31.2191 19.064C31.2191 15.104 28.5071 12.488 24.6671 12.488C20.7311 12.488 17.9951 15.152 17.9951 19.352C17.9951 23.528 20.8031 26.216 24.6671 26.216C27.9551 26.216 30.1631 24.272 30.8831 21.824ZM37.0316 19.376C37.0316 16.808 38.2316 16.04 40.2236 16.04H41.1116V12.512C39.2636 12.512 37.8716 13.4 37.0316 14.768V12.704H33.6716V26H37.0316V19.376ZM61.9748 26H65.3348V18.2C65.3348 14.528 63.0788 12.512 59.8868 12.512C57.9428 12.512 56.1908 13.544 55.3268 15.056C54.4148 13.4 52.7108 12.512 50.6468 12.512C48.9908 12.512 47.5748 13.208 46.7348 14.312V12.704H43.3748V26H46.7348V18.656C46.7348 16.544 47.9108 15.44 49.7348 15.44C51.5108 15.44 52.6868 16.544 52.6868 18.656V26H56.0468V18.656C56.0468 16.544 57.2228 15.44 59.0228 15.44C60.7988 15.44 61.9748 16.544 61.9748 18.656V26ZM74.2352 15.248C75.9632 15.248 77.3552 16.352 77.4032 18.104H71.0912C71.3552 16.28 72.6272 15.248 74.2352 15.248ZM80.5472 21.824H76.9232C76.4912 22.712 75.6992 23.432 74.2592 23.432C72.5792 23.432 71.2352 22.328 71.0672 20.36H80.7872C80.8592 19.928 80.8832 19.496 80.8832 19.064C80.8832 15.104 78.1712 12.488 74.3312 12.488C70.3952 12.488 67.6592 15.152 67.6592 19.352C67.6592 23.528 70.4672 26.216 74.3312 26.216C77.6192 26.216 79.8272 24.272 80.5472 21.824ZM93.6557 22.208C93.5597 17.336 86.1917 18.848 86.1917 16.424C86.1917 15.656 86.8397 15.152 88.0877 15.152C89.4077 15.152 90.2237 15.848 90.3197 16.88H93.5357C93.3437 14.24 91.3997 12.488 88.1837 12.488C84.8957 12.488 82.9277 14.264 82.9277 16.472C82.9277 21.344 90.4397 19.832 90.4397 22.208C90.4397 22.976 89.7197 23.576 88.3997 23.576C87.0557 23.576 86.1197 22.808 85.9997 21.8H82.6157C82.7597 24.272 85.0877 26.216 88.4237 26.216C91.6637 26.216 93.6557 24.488 93.6557 22.208Z" fill="#004761"/>
<path d="M91 3.00675C96.6972 3.00925 102.394 2.98055 108.09 3.02547C113.034 3.06415 116.832 5.21276 119.389 9.46381C120.401 11.147 120.926 13.0037 121.031 14.9626C121.084 15.9508 121.039 16.9453 121.039 17.9709C120.823 17.9809 120.641 17.9959 120.46 17.9959C115.72 17.9971 110.979 18.0058 106.239 17.9934C103.114 17.9859 100.782 16.6159 99.3025 13.8509C99.0716 13.4179 98.9281 12.9388 98.7123 12.4035C101.822 12.4035 104.844 12.4035 107.914 12.4035C107.914 11.137 107.914 9.92548 107.914 8.63656C107.662 8.63656 107.419 8.63656 107.177 8.63656C102.831 8.63656 98.4864 8.62907 94.1406 8.64779C93.6777 8.65029 93.3632 8.50305 93.0613 8.17864C92.0593 7.09935 91.4167 5.84412 91.131 4.40173C91.1036 4.26572 91.0449 4.13721 91 4.00495C91 3.67305 91 3.3399 91 3.00675Z" fill="#FF6E6C"/>
</svg>
