<svg width="50" height="52" viewBox="0 0 50 52" fill="none" xmlns="http://www.w3.org/2000/svg">
<path d="M5.69362 51C5.65717 50.9714 5.62331 50.9336 5.58165 50.9141C4.46319 50.3659 4.2796 49.2409 5.19103 48.3829C6.48918 47.1616 7.61936 45.8061 8.54511 44.2814C8.93833 43.6343 8.91359 43.5458 8.32897 43.0809C3.07781 38.9157 0.602611 33.464 1.05182 26.7832C1.56873 19.092 7.00609 12.5362 14.4017 10.4412C14.6465 10.3722 14.9082 10.1547 15.0449 9.93466C16.4915 7.6066 18.3365 5.67045 20.6073 4.13794C20.7284 4.05591 20.8521 3.97779 20.9758 3.89966C21.4588 3.59889 21.8872 3.64056 22.1346 4.00773C22.3911 4.39054 22.257 4.76943 21.7935 5.11838C20.938 5.7629 20.0435 6.36835 19.2662 7.0975C18.3964 7.91258 17.6386 8.84875 16.8665 9.79795C24.3741 9.17296 30.5185 11.6508 34.7645 17.8863C39.0274 24.1478 39.0131 30.7818 35.5991 37.5524C38.1824 39.1917 41.0495 40.1748 44.1926 40.7906C44.0338 40.611 43.9608 40.5172 43.8762 40.4339C42.5729 39.1722 41.4492 37.7673 40.5143 36.2113C39.8177 35.0512 39.9987 34.0916 41.0664 33.2726C44.8293 30.386 47.1626 26.5996 47.7511 21.8966C48.5636 15.4072 46.3788 9.99586 41.1862 6.0194C36.3269 2.29814 30.8831 1.5078 25.072 3.50775C24.4965 3.70566 24.0812 3.57936 23.9275 3.14968C23.7752 2.72652 23.9744 2.35543 24.4718 2.16924C25.9835 1.60285 27.5433 1.23697 29.1513 1.08854C29.2946 1.07552 29.4339 1.02995 29.5745 1C30.4521 1 31.3297 1 32.206 1C33.2893 1.19401 34.3882 1.32421 35.4546 1.58983C42.7825 3.42051 48.3735 9.64952 49.2276 17.1441C50.0258 24.1543 47.5936 29.9107 42.0833 34.3351C41.4518 34.8416 41.4271 34.9015 41.8593 35.6072C42.7643 37.0863 43.8528 38.417 45.1249 39.5941C45.4686 39.9118 45.7421 40.262 45.7564 40.7581C45.7837 41.7086 44.9817 42.4104 44.0207 42.2372C40.8633 41.6708 37.8725 40.6409 35.1121 38.9808C35.0145 38.9222 34.9181 38.8636 34.7814 38.7829C34.5353 39.1045 34.2957 39.4235 34.0497 39.7386C33.0249 41.055 31.8414 42.2099 30.5003 43.202C29.9508 43.6083 29.5081 43.6174 29.2269 43.2229C28.9482 42.8322 29.0732 42.4494 29.611 42.0432C33.1278 39.3844 35.3465 35.8975 36.2202 31.5682C37.7097 24.1895 34.0497 16.5933 27.3519 13.1273C17.3196 7.93602 5.02958 13.7158 2.82651 24.8119C1.45806 31.7062 3.72623 37.4379 9.16879 41.8778C10.3966 42.8804 10.5984 43.7255 9.77685 45.0705C8.89146 46.521 7.8394 47.8399 6.62459 49.0274C6.51131 49.1381 6.36678 49.2175 6.23658 49.3112C6.26652 49.3633 6.29647 49.4154 6.32772 49.4675C6.74047 49.3855 7.15713 49.3204 7.56597 49.2214C10.4448 48.5235 13.1609 47.4493 15.5996 45.7332C16.1881 45.3192 16.8314 45.1746 17.5371 45.2541C20.606 45.603 23.5551 45.1629 26.3871 43.9234C26.9366 43.6825 27.3584 43.8075 27.5329 44.2424C27.7035 44.6668 27.5134 45.0197 26.973 45.258C23.9666 46.5887 20.826 47.0561 17.5566 46.7423C17.1946 46.7071 16.7402 46.7553 16.4538 46.9506C13.4942 48.9701 10.2248 50.2018 6.73396 50.8984C6.64412 50.9167 6.55949 50.9648 6.47355 51C6.21444 51 5.95403 51 5.69362 51Z" fill="#FF6E6C" stroke="#FF6E6C" stroke-width="0.3"/>
<path d="M19.5357 30.6086C22.7179 30.6086 25.9001 30.6047 29.0824 30.6112C30.3492 30.6138 31.1656 31.4589 31.038 32.6242C31.0133 32.8456 30.9326 33.0656 30.844 33.2726C28.8662 37.9014 24.2895 40.8623 19.261 40.6748C14.101 40.4821 10.381 38.0225 8.17274 33.3325C7.49177 31.8859 8.3342 30.6151 9.93962 30.6112C13.1388 30.6034 16.3379 30.6086 19.5357 30.6086ZM19.4889 32.0734C16.3535 32.0734 13.2182 32.0734 10.0828 32.0734C9.3537 32.0734 9.25344 32.218 9.57244 32.8742C11.588 37.0173 14.9343 39.193 19.5019 39.193C24.0721 39.193 27.4105 37.003 29.4287 32.8651C29.7386 32.231 29.6227 32.0734 28.8962 32.0734C25.7595 32.0721 22.6242 32.0734 19.4889 32.0734Z" fill="#FF6E6C" stroke="#FF6E6C" stroke-width="0.3"/>
<path d="M25.8233 19.993C28.016 19.9331 29.9391 21.7508 29.9729 23.9174C29.9807 24.4499 29.7268 24.7898 29.2972 24.8158C28.8727 24.8418 28.5628 24.5202 28.5146 24.002C28.374 22.493 27.3102 21.4578 25.8988 21.4565C24.5069 21.4552 23.4405 22.4682 23.2713 23.9512C23.2023 24.5593 22.9015 24.8744 22.451 24.8132C21.9953 24.7507 21.7648 24.3692 21.8247 23.7742C22.0382 21.6219 23.6997 20.0516 25.8233 19.993Z" fill="#FF6E6C" stroke="#FF6E6C" stroke-width="0.3"/>
<path d="M9.01255 23.8913C9.06724 21.8731 10.726 20.1753 12.8093 20.0099C14.834 19.8485 16.7285 21.2885 17.0983 23.2715C17.1399 23.4942 17.1738 23.722 17.1816 23.9473C17.1985 24.4577 16.9017 24.8093 16.4668 24.8171C16.054 24.8249 15.7715 24.5202 15.7259 24.0202C15.6022 22.6335 14.722 21.6531 13.4538 21.4877C11.9174 21.2885 10.5815 22.3757 10.4774 23.9317C10.4513 24.3223 10.3511 24.6361 9.95263 24.7741C9.4266 24.959 8.99432 24.5501 9.01255 23.8913Z" fill="#FF6E6C" stroke="#FF6E6C" stroke-width="0.3"/>
</svg>
