<svg width="53" height="50" viewBox="0 0 53 50" fill="none" xmlns="http://www.w3.org/2000/svg">
<path d="M52.471 11.8861C52.3347 12.6024 52.2486 13.332 52.0539 14.0309C51.3468 16.5724 49.9172 18.6271 47.7426 20.1284C47.098 20.5732 46.6625 21.1563 46.2905 21.8131C45.2391 23.669 44.2112 25.5372 43.126 27.3726C42.8698 27.8061 42.4281 28.132 42.0674 28.5029C41.9608 28.6126 41.8337 28.7017 41.723 28.8073C39.6704 30.7882 37.6239 32.7742 35.5631 34.7459C35.3058 34.9919 35.2556 35.1845 35.3735 35.534C35.9935 37.3786 35.5764 39.0275 34.2144 40.3761C32.8566 41.7206 31.1831 42.0741 29.3918 41.4316C27.6036 40.7901 26.5696 39.4579 26.3236 37.5579C26.2765 37.19 26.3503 36.8078 26.3144 36.4378C26.2959 36.2523 26.2058 35.9982 26.0643 35.9131C23.7278 34.501 21.378 33.1114 19.0302 31.7177C18.9903 31.6941 18.94 31.688 18.896 31.6736C17.5996 34.4364 14.6616 35.1548 12.3907 34.1054C10.7613 36.5669 9.1257 39.0367 7.57622 41.3773C8.10706 42.194 8.7332 42.8847 9.04576 43.6953C9.73134 45.4713 9.34602 47.1478 8.06197 48.5364C6.80456 49.8953 5.19668 50.2929 3.4279 49.7918C1.56997 49.265 0.470377 47.9892 0.086083 46.0964C0.0655873 45.997 0.0286939 45.9017 0 45.8054C0 45.4293 0 45.0542 0 44.6781C0.238774 43.7466 0.554409 42.856 1.24511 42.1438C2.45538 40.8967 3.9116 40.4335 5.62401 40.7163C5.77978 40.7419 6.04007 40.6681 6.11898 40.5513C7.77196 38.0867 9.40649 35.6088 10.9611 33.2589C10.5901 32.3807 10.129 31.6213 9.94655 30.7995C9.26712 27.7354 11.8947 24.9346 15.0069 25.2677C17.2051 25.5034 18.9974 27.3285 19.1675 29.5113C19.1798 29.6753 19.2567 29.9048 19.3797 29.9786C21.9058 31.5014 24.4421 33.0068 26.9723 34.5123C29.2811 31.9052 31.1698 31.691 34.2954 33.675C36.221 31.8212 38.1486 29.9643 40.0865 28.0992C38.746 25.7698 37.4302 23.461 36.0836 21.1706C35.8838 20.8314 35.5702 20.5281 35.2454 20.2995C32.8248 18.5984 31.2057 16.3459 30.5939 13.4407C29.0034 5.89416 34.9677 -0.171534 41.8562 0.00370363C47.0806 0.136925 51.605 4.2545 52.3582 9.54546C52.3818 9.71148 52.432 9.87442 52.4699 10.0394C52.471 10.6563 52.471 11.2712 52.471 11.8861ZM41.3889 27.224C41.6503 26.809 41.8409 26.5333 42.0059 26.2423C42.9487 24.5811 43.915 22.9332 44.8138 21.2485C45.3743 20.1971 46.1327 19.3824 47.0949 18.6824C51.8202 15.2453 52.2117 8.13946 47.924 4.16432C44.5729 1.05718 39.8159 0.708755 36.0078 3.29121C32.5676 5.62464 31.0755 9.85597 32.2889 13.827C32.9078 15.852 34.0474 17.5183 35.7783 18.7378C36.7098 19.3936 37.4128 20.1981 37.9508 21.2003C38.8618 22.8974 39.8364 24.5606 40.7874 26.2371C40.9534 26.5282 41.1368 26.81 41.3889 27.224ZM14.4587 32.9218C16.166 32.932 17.5207 31.6285 17.532 29.9632C17.5433 28.2406 16.1803 26.8715 14.4607 26.8786C12.8457 26.8848 11.4899 28.2662 11.4847 29.9089C11.4806 31.5506 12.8231 32.9115 14.4587 32.9218ZM27.9438 37.0168C27.8895 38.637 29.2514 40.0205 30.9433 40.0635C32.5604 40.1045 33.9132 38.7897 33.9839 37.107C34.0515 35.5165 32.7213 34.0757 31.135 34.0193C29.3549 33.9568 28.0043 35.2245 27.9438 37.0168ZM4.67814 42.2986C3.00876 42.3027 1.63658 43.681 1.65605 45.3329C1.6745 46.9675 3.03131 48.3243 4.66789 48.3438C6.31471 48.3643 7.6992 46.9828 7.70227 45.3176C7.70432 43.6431 6.35468 42.2945 4.67814 42.2986Z" fill="#FF6E6C"/>
<path d="M41.4012 18.8545C37.7551 18.7674 34.651 16.2659 33.8742 12.7171C33.1046 9.2021 34.9267 5.55694 38.1947 4.07613C41.516 2.57175 45.3917 3.52583 47.5458 6.45158C49.2152 8.71943 49.5298 11.2209 48.5696 13.8731C48.3677 14.4305 47.9281 14.6796 47.469 14.5176C47.0089 14.3547 46.8141 13.8966 47.0201 13.3279C47.6176 11.677 47.5991 10.0598 46.8408 8.45913C45.7463 6.14825 43.1956 4.72892 40.7187 5.06915C37.9887 5.44319 35.9084 7.39131 35.4575 9.99631C35.022 12.5132 36.1205 14.9522 38.2838 16.2659C40.4133 17.5602 43.1096 17.384 45.1437 15.8191C45.2114 15.7669 45.278 15.7136 45.3477 15.6644C45.817 15.3365 46.2813 15.3631 46.5795 15.7361C46.8726 16.102 46.7947 16.5939 46.3725 16.9525C45.5557 17.6453 44.6396 18.1751 43.6025 18.4436C42.881 18.6281 42.136 18.7203 41.4012 18.8545Z" fill="#FF6E6C"/>
</svg>
