<svg width="51" height="50" viewBox="0 0 51 50" fill="none" xmlns="http://www.w3.org/2000/svg">
<path d="M18.574 44.4478C18.0683 45.5361 17.5916 46.5582 17.0978 47.6201C17.1891 47.6201 17.3745 47.6201 17.5585 47.6201C24.1004 47.6201 30.6436 47.6201 37.1855 47.6201C38.2262 47.6201 38.7743 48.0411 38.7598 48.8302C38.7465 49.6021 38.2156 49.9993 37.1922 49.9993C25.5449 49.9993 13.8977 49.9993 2.25044 49.9993C2.16836 49.9993 2.08494 50.0006 2.00286 49.9993C1.2111 49.9847 0.701364 49.5227 0.696068 48.817C0.692096 48.1113 1.20316 47.628 1.98829 47.6227C3.35996 47.6148 4.7303 47.6201 6.10196 47.6201C6.25952 47.6201 6.41575 47.6201 6.61568 47.6201C3.53075 43.6759 5.41083 38.7983 8.91017 37.1552C12.7604 35.3466 17.6009 37.5643 18.4615 42.0646C20.0874 42.0646 21.7199 42.0765 23.3524 42.0566C23.7628 42.0513 24.07 41.7693 24.07 41.3668C24.07 38.842 24.1229 36.3118 23.9813 33.7922C23.8965 32.2908 22.9658 31.1627 21.6444 30.4319C20.3019 29.6891 18.9209 29.0165 17.5837 28.2645C17.1984 28.0474 16.8211 27.719 16.5867 27.3483C11.4271 19.207 6.28732 11.0525 1.14358 2.8993C1.03766 2.73248 0.923795 2.5683 0.837735 2.39089C0.557047 1.81495 0.749027 1.13573 1.26804 0.831213C1.80955 0.513452 2.50862 0.673658 2.87008 1.24033C4.00739 3.02111 5.12882 4.81116 6.25555 6.59856C10.2527 12.9366 14.2472 19.2772 18.2603 25.6059C18.4668 25.9316 18.8044 26.2176 19.1434 26.4083C20.2648 27.0385 21.4233 27.6012 22.554 28.2168C25.1146 29.611 26.428 31.7771 26.4624 34.6899C26.4876 36.8374 26.4717 38.9849 26.4664 41.1325C26.4611 43.0814 25.1067 44.4398 23.167 44.4478C21.602 44.4517 20.0331 44.4478 18.574 44.4478ZM16.1577 43.2707C16.163 40.8663 14.2327 38.9148 11.8349 38.8989C9.40799 38.883 7.44185 40.8253 7.43655 43.2456C7.43126 45.6486 9.3643 47.6029 11.7594 47.6188C14.1863 47.6333 16.1525 45.6897 16.1577 43.2707Z" fill="#FF6E6C"/>
<path d="M48.3072 18.2855C48.3178 10.1058 42.0685 3.25944 33.8941 2.49416C26.6809 1.81892 19.9047 6.14708 17.4672 12.9948C17.3017 13.4595 17.1296 13.9044 16.6079 14.0633C16.1472 14.2036 15.7195 14.1295 15.374 13.7773C14.9953 13.392 14.9755 12.9286 15.137 12.4414C15.8718 10.2197 16.972 8.19002 18.5344 6.45293C23.498 0.93449 29.6811 -1.18656 36.8665 0.641888C44.1935 2.50608 48.6739 7.43269 50.3117 14.8034C51.2332 18.9515 50.4282 22.9209 48.5945 26.7274C45.6631 32.8138 41.5759 37.9575 36.2601 42.1295C35.1718 42.9834 33.9616 43.4786 32.5794 43.5316C31.8075 43.5607 31.3123 43.0735 31.3216 42.3281C31.3295 41.6992 31.7519 41.1974 32.3834 41.1788C33.4426 41.147 34.3112 40.7247 35.1254 40.0733C40.3989 35.8524 44.3842 30.6504 47.0573 24.4501C47.902 22.4892 48.3257 20.4291 48.3072 18.2855Z" fill="#FF6E6C"/>
<path d="M24.4884 18.255C24.4977 13.8938 28.091 10.3322 32.4682 10.3494C36.8069 10.3666 40.3592 13.9507 40.35 18.3027C40.3407 22.6653 36.7473 26.2268 32.3702 26.2083C28.0328 26.1911 24.4792 22.6044 24.4884 18.255ZM37.9694 18.2868C37.9734 15.2403 35.4737 12.734 32.4285 12.7287C29.3833 12.7247 26.8743 15.2244 26.869 18.2683C26.865 21.3122 29.3674 23.8225 32.4099 23.8278C35.4538 23.8331 37.9654 21.3307 37.9694 18.2868Z" fill="#FF6E6C"/>
<path d="M0.694766 17.6447C0.694766 15.7619 0.685498 13.8792 0.698738 11.9978C0.705358 11.0617 1.54213 10.4924 2.36433 10.8499C2.87937 11.0737 3.07532 11.5039 3.074 12.0468C3.07267 14.0288 3.074 16.0095 3.074 17.9916C3.074 19.6267 3.07135 21.2605 3.07532 22.8957C3.07929 24.646 4.24574 25.8085 6.00004 25.8124C7.89865 25.8164 9.7986 25.8098 11.6972 25.8164C12.4042 25.819 12.8743 26.199 12.9736 26.816C13.0781 27.4674 12.632 28.1599 11.9726 28.1652C9.64634 28.1811 7.3055 28.283 4.99645 28.0725C2.5444 27.8487 0.738458 25.6244 0.70271 23.1459C0.67623 21.3135 0.697415 19.4797 0.697415 17.6473C0.696091 17.6447 0.694766 17.6447 0.694766 17.6447Z" fill="#FF6E6C"/>
<path d="M47.4651 49.998C46.8534 49.998 46.243 50.0033 45.6313 49.9967C44.8369 49.9874 44.3272 49.5267 44.3192 48.821C44.3113 48.1153 44.8237 47.6267 45.6049 47.6214C46.86 47.6135 48.1152 47.6135 49.3703 47.6214C50.1581 47.6267 50.6639 48.1087 50.6572 48.8197C50.6506 49.5253 50.1409 49.9835 49.3478 49.998C49.3319 49.998 49.3147 49.998 49.2988 49.998C48.6871 49.998 48.0768 49.998 47.4651 49.998Z" fill="#FF6E6C"/>
</svg>
