<svg width="48" height="51" viewBox="0 0 48 51" fill="none" xmlns="http://www.w3.org/2000/svg">
<path d="M35.8041 0.199951C36.5536 0.335443 37.3165 0.420888 38.0489 0.616191C43.687 2.12247 47.4527 7.08316 47.4136 12.9203C47.3721 19.1163 42.4444 24.5042 36.2838 25.1108C33.1638 25.4172 30.3197 24.6946 27.7442 22.9064C27.6685 22.8539 27.5855 22.8124 27.4244 22.7172C27.4244 22.9747 27.4244 23.1603 27.4244 23.347C27.4244 29.7066 27.4207 36.0661 27.4268 42.4257C27.428 44.253 26.6712 45.6164 25.0282 46.4538C24.7414 46.6003 24.4253 46.6869 24.0908 46.8127C24.0908 47.0531 24.0932 47.2948 24.0908 47.5365C24.0774 48.8707 23.4683 49.7019 22.2061 50.1133C22.1463 50.1328 22.0914 50.1707 22.034 50.2C21.4481 50.2 20.8622 50.2 20.2763 50.2C20.2226 50.1682 20.1725 50.1255 20.1139 50.106C19.0032 49.752 18.3879 48.9976 18.2793 47.8368C18.2512 47.5328 18.2464 47.2277 18.2305 46.9079C15.4523 46.9079 12.6997 46.9079 9.97405 46.9079C9.91912 47.4303 9.92523 47.9271 9.8056 48.3922C9.55049 49.3858 8.80101 49.8985 7.87332 50.2C7.28741 50.2 6.70151 50.2 6.1156 50.2C5.36856 49.9253 4.65082 49.5725 4.36763 48.7779C4.18698 48.2713 4.18576 47.7025 4.07224 47.1679C4.03562 46.9982 3.92454 46.7443 3.79637 46.7077C1.92269 46.1682 0.735001 44.4593 0.739883 42.2877C0.764296 31.1616 0.749648 20.0366 0.758192 8.91046C0.758192 8.42831 0.794812 7.92785 0.92298 7.46522C1.47715 5.47069 3.01882 4.35746 5.21842 4.3538C11.1398 4.34526 17.0599 4.34282 22.9812 4.36479C23.5867 4.36723 24.2031 4.50882 24.7902 4.67361C25.0978 4.76028 25.2516 4.77492 25.4799 4.51371C27.3292 2.40932 29.6203 1.04098 32.3777 0.47948C32.8672 0.379387 33.3591 0.29272 33.8498 0.199951C34.5017 0.199951 35.1523 0.199951 35.8041 0.199951ZM2.41705 20.1965C2.41705 20.4407 2.41705 20.6311 2.41705 20.8227C2.41705 26.03 2.41705 31.2373 2.41705 36.4445C2.41705 38.4781 2.40484 40.5129 2.42071 42.5465C2.43291 44.1626 3.49121 45.1868 5.10246 45.1868C11.1068 45.1868 17.1112 45.1868 23.1155 45.1868C24.6816 45.1868 25.7497 44.1663 25.7509 42.6136C25.7606 35.584 25.7558 28.5543 25.7533 21.5246C25.7533 20.9289 25.0124 20.1978 24.4253 20.1978C17.282 20.1978 10.1376 20.1978 2.99441 20.1978C2.81986 20.1965 2.64653 20.1965 2.41705 20.1965ZM23.8247 18.5047C21.818 14.3106 21.9571 10.2397 24.2373 6.15181C23.7759 6.10542 23.3828 6.03219 22.9898 6.03097C17.0684 6.02364 11.1459 6.02364 5.22453 6.0273C3.41553 6.02852 2.41949 7.03067 2.41827 8.83967C2.41583 11.8986 2.41705 14.9563 2.41827 18.0152C2.41827 18.1715 2.43536 18.3277 2.44634 18.5047C9.57246 18.5047 16.6595 18.5047 23.8247 18.5047ZM34.9887 23.4801C40.7196 23.5789 45.6474 18.7379 45.7621 12.8959C45.8805 6.90495 41.0992 1.95768 35.0961 1.85881C29.0906 1.75871 24.1469 6.56927 24.1176 12.6737C24.0908 18.6707 28.9441 23.5033 34.9887 23.4801ZM19.9369 46.8981C19.9479 47.4608 19.7587 48.0687 20.3471 48.38C20.8793 48.6619 21.5055 48.6668 22.034 48.369C22.6114 48.0431 22.4039 47.4401 22.4124 46.8993C21.5848 46.8981 20.7926 46.8981 19.9369 46.8981ZM5.76893 46.8981C5.76771 47.4608 5.5895 48.0675 6.17419 48.3788C6.70517 48.6632 7.33502 48.668 7.86234 48.3678C8.4336 48.0431 8.24196 47.4413 8.24684 46.8981C7.41558 46.8981 6.62338 46.8981 5.76893 46.8981Z" fill="#FF6E6C"/>
<path d="M5.74812 25.1999C5.74812 25.9799 5.75545 26.7599 5.74568 27.5399C5.73836 28.1417 5.4393 28.4969 4.95104 28.514C4.45302 28.531 4.09293 28.1539 4.08683 27.5448C4.0734 25.9848 4.07584 24.426 4.08561 22.866C4.08927 22.2399 4.41518 21.8749 4.92053 21.8737C5.43442 21.8724 5.73836 22.2264 5.74568 22.8612C5.75423 23.6412 5.74812 24.4199 5.74812 25.1999Z" fill="#FF6E6C"/>
<path d="M5.74824 13.5306C5.74824 14.3106 5.75557 15.0906 5.7458 15.8706C5.73848 16.4772 5.44553 16.8215 4.94995 16.8361C4.43972 16.8508 4.09305 16.4907 4.08817 15.873C4.07474 14.313 4.07718 12.7531 4.08695 11.1943C4.09061 10.5742 4.42751 10.1946 4.92309 10.1921C5.41989 10.1909 5.74092 10.5681 5.74703 11.1906C5.75435 11.9706 5.74824 12.7506 5.74824 13.5306Z" fill="#FF6E6C"/>
<path d="M42.3321 13.5123C42.6007 13.9188 42.8143 14.2349 43.0193 14.5572C43.3672 15.1028 43.3086 15.6069 42.8729 15.8877C42.4493 16.1599 42.0038 16.0183 41.6425 15.4861C41.2677 14.9344 40.9064 14.3741 40.5256 13.8272C40.4389 13.7039 40.2985 13.5343 40.1789 13.5318C39.145 13.5086 38.1111 13.5184 37.0199 13.6295C37.5716 14.1714 38.1233 14.7122 38.6739 15.2554C38.9632 15.541 39.2537 15.8266 39.5369 16.1184C39.9885 16.5847 40.0324 17.0888 39.6601 17.4464C39.2952 17.7968 38.8277 17.7528 38.3711 17.3012C37.5411 16.4772 36.7196 15.646 35.7761 14.6975C35.7761 15.1992 35.7761 15.5581 35.7761 15.9182C35.7761 16.52 35.7529 17.1242 35.7895 17.7235C35.8017 17.9127 35.9286 18.152 36.08 18.2643C36.6134 18.6622 37.1847 19.0101 37.734 19.3885C38.2686 19.7559 38.4029 20.2368 38.1075 20.6714C37.8316 21.0754 37.3434 21.1145 36.8099 20.7715C36.5097 20.5774 36.2118 20.3796 35.9115 20.1843C35.8993 20.177 35.8822 20.177 35.7724 20.1538C35.7724 20.4138 35.7846 20.6604 35.7699 20.9045C35.7358 21.4892 35.4038 21.8554 34.9253 21.8493C34.4419 21.8432 34.1306 21.4807 34.1074 20.8874C34.0977 20.6494 34.1062 20.4114 34.1062 20.0745C33.6814 20.3564 33.3506 20.5823 33.0125 20.7971C32.5133 21.1145 32.0445 21.0583 31.7626 20.6567C31.4611 20.2271 31.577 19.7705 32.0946 19.4141C32.6439 19.0357 33.1944 18.6598 33.7595 18.3058C34.0061 18.1507 34.1172 17.9799 34.1111 17.6784C34.0928 16.7263 34.1038 15.7742 34.1038 14.6756C33.264 15.5154 32.5328 16.249 31.8004 16.9814C31.6393 17.1425 31.4855 17.3122 31.3097 17.4562C30.9313 17.765 30.4724 17.7443 30.166 17.4208C29.8645 17.1022 29.8462 16.6323 30.1794 16.2734C30.7104 15.7021 31.2743 15.159 31.8273 14.6072C32.1581 14.2776 32.4937 13.9542 32.9393 13.5184C31.7479 13.5184 30.7153 13.5099 29.6826 13.5306C29.5752 13.5331 29.447 13.6844 29.3689 13.7955C29.0064 14.3167 28.6597 14.8477 28.3069 15.3738C27.8736 16.0207 27.4586 16.1782 26.9923 15.8755C26.5224 15.5703 26.504 15.0833 26.9374 14.429C27.1168 14.1592 27.295 13.8883 27.5452 13.5111C27.1949 13.5111 26.93 13.5221 26.6676 13.5086C26.1183 13.4806 25.7643 13.1473 25.7692 12.6786C25.7741 12.2379 26.1147 11.8998 26.6334 11.8547C26.9007 11.8315 27.1717 11.851 27.533 11.851C27.2645 11.4421 27.0472 11.1235 26.8422 10.7976C26.5211 10.2874 26.5785 9.83939 26.9899 9.54887C27.4098 9.25348 27.8797 9.37554 28.2337 9.88821C28.6121 10.4375 28.9673 11.0027 29.353 11.5458C29.4446 11.674 29.6142 11.8278 29.7522 11.8303C30.7568 11.8547 31.7614 11.8437 32.7659 11.8437C32.8038 11.7924 32.8416 11.7399 32.8795 11.6887C32.429 11.2797 31.9713 10.8782 31.5294 10.4595C31.14 10.0896 30.7665 9.70389 30.3881 9.32183C29.9121 8.8409 29.8547 8.37461 30.2197 7.99743C30.603 7.60194 31.0705 7.65321 31.577 8.16222C32.379 8.96784 33.1736 9.78079 33.9707 10.5913C34.0159 10.5791 34.061 10.5669 34.1062 10.5559C34.1062 10.3765 34.1062 10.1983 34.1062 10.0188C34.1062 9.23761 34.127 8.45518 34.0916 7.67641C34.0818 7.475 33.9426 7.21744 33.7803 7.09538C33.2493 6.69501 32.6756 6.34957 32.1263 5.97117C31.6515 5.64403 31.5282 5.16432 31.7955 4.75785C32.0677 4.34527 32.5377 4.27813 33.0394 4.58818C33.3567 4.7847 33.668 4.98855 33.9829 5.18873C33.9939 5.19606 34.0134 5.18995 34.1148 5.18995C34.1148 4.91165 34.0964 4.62602 34.1184 4.34283C34.1563 3.85335 34.4846 3.53232 34.9228 3.52622C35.3354 3.52011 35.676 3.81429 35.7419 4.27325C35.7846 4.57231 35.7809 4.87869 35.8017 5.26685C36.1642 5.02517 36.4694 4.81766 36.7782 4.61869C37.308 4.27813 37.7791 4.3294 38.0684 4.75052C38.3553 5.16676 38.2234 5.64281 37.7132 5.99192C37.1627 6.36787 36.5975 6.72308 36.058 7.11369C35.9238 7.21012 35.7907 7.4103 35.7858 7.56655C35.7614 8.54184 35.7736 9.51714 35.7736 10.5815C35.9225 10.468 36.0226 10.407 36.1032 10.3264C36.8075 9.62699 37.5081 8.9239 38.21 8.22203C38.7776 7.65443 39.2402 7.57997 39.6382 7.98767C40.0275 8.38804 39.9543 8.82625 39.4026 9.3792C38.7239 10.0591 38.044 10.7366 37.3665 11.4165C37.2567 11.5263 37.1554 11.6447 36.9759 11.8412C38.1111 11.8412 39.145 11.8486 40.1777 11.8303C40.2876 11.8278 40.4218 11.6899 40.4975 11.5812C40.8686 11.0478 41.2226 10.501 41.5863 9.96145C41.9623 9.40484 42.4127 9.25714 42.8509 9.53789C43.3074 9.83206 43.344 10.3069 42.9559 10.9013C42.7716 11.1833 42.586 11.4665 42.3382 11.8473C42.6788 11.8473 42.9302 11.8339 43.178 11.8498C43.7493 11.8888 44.1179 12.2465 44.0935 12.7213C44.0691 13.1925 43.7224 13.4867 43.1536 13.5099C42.918 13.5208 42.6788 13.5123 42.3321 13.5123Z" fill="#FF6E6C"/>
</svg>
