<svg width="51" height="50" viewBox="0 0 51 50" fill="none" xmlns="http://www.w3.org/2000/svg">
<path d="M29.3157 7.59618C29.3157 6.85585 29.3157 6.18209 29.3157 5.42953C29.1296 5.42953 28.9517 5.42953 28.7737 5.42953C27.5675 5.42953 26.3626 5.43361 25.1563 5.42818C24.3277 5.4241 23.9025 5.00707 23.893 4.17573C23.8808 3.19089 23.8794 2.20604 23.8944 1.21984C23.9066 0.410237 24.3182 0.00543361 25.1346 0.00407521C28.6664 -0.0013584 32.1983 -0.0013584 35.7301 0.00407521C36.5289 0.00543361 36.9214 0.400727 36.931 1.19267C36.9418 2.17752 36.9391 3.16236 36.9323 4.14856C36.9269 5.03016 36.5316 5.4241 35.6568 5.42818C34.3323 5.43361 33.0079 5.43089 31.6834 5.43361C31.6508 5.43361 31.6182 5.44448 31.5462 5.45806C31.5462 6.1359 31.5462 6.82189 31.5462 7.59482C32.1154 7.59482 32.6995 7.59347 33.285 7.59482C34.4165 7.59618 34.7684 7.95073 34.7684 9.09043C34.7684 9.70171 34.7833 10.3143 34.7616 10.9243C34.7507 11.2449 34.839 11.3753 35.1759 11.4731C42.7354 13.6356 47.6243 18.496 49.4853 26.1424C51.9848 36.412 45.315 47.0292 34.9993 49.4635C24.5804 51.9208 14.2388 45.717 11.4772 35.3497C8.80252 25.3084 14.7958 14.6395 24.7474 11.7257C25.1835 11.598 25.7785 11.5709 25.9972 11.2734C26.22 10.9732 26.0705 10.3945 26.0773 9.93807C26.0828 9.58081 26.0746 9.22491 26.08 8.86765C26.0923 7.99555 26.4835 7.60569 27.3705 7.59482C27.9995 7.58939 28.6257 7.59618 29.3157 7.59618ZM30.4364 13.0502C20.8651 13.0311 13.0896 20.7781 13.0394 30.3834C12.9905 39.9601 20.7809 47.7995 30.3807 47.8334C39.9534 47.8674 47.79 40.0579 47.8131 30.4649C47.8362 20.8786 40.0458 13.0705 30.4364 13.0502ZM26.1018 3.22892C29.0155 3.22892 31.875 3.22892 34.7371 3.22892C34.7371 2.86351 34.7371 2.53206 34.7371 2.1979C31.8437 2.1979 28.9829 2.1979 26.1018 2.1979C26.1018 2.54565 26.1018 2.86351 26.1018 3.22892ZM32.5746 9.82668C31.1034 9.82668 29.6907 9.82668 28.2752 9.82668C28.2752 10.1812 28.2752 10.495 28.2752 10.8278C29.7178 10.8278 31.1306 10.8278 32.5746 10.8278C32.5746 10.4841 32.5746 10.1717 32.5746 9.82668Z" fill="#FF6E6C"/>
<path d="M4.3483 29.3605C5.38204 29.3605 6.41578 29.3537 7.45088 29.3632C8.19393 29.3686 8.67209 29.7938 8.67752 30.4295C8.68296 31.0789 8.18171 31.5231 7.421 31.5244C5.35351 31.5285 3.28466 31.5298 1.21718 31.5244C0.479563 31.5231 0.00548216 31.0938 4.85474e-05 30.4486C-0.00538506 29.7897 0.445604 29.37 1.1968 29.3632C2.24549 29.3523 3.29689 29.3605 4.3483 29.3605Z" fill="#FF6E6C"/>
<path d="M8.11921 17.3821C8.96821 17.3821 9.81585 17.3753 10.6649 17.3835C11.4446 17.3916 11.935 17.8182 11.9377 18.4716C11.9404 19.125 11.4514 19.5665 10.6757 19.5705C8.97907 19.58 7.28107 19.58 5.58443 19.5705C4.82372 19.5665 4.31975 19.1019 4.33334 18.458C4.34692 17.8304 4.83595 17.3971 5.57356 17.3862C6.42256 17.3726 7.27021 17.3821 8.11921 17.3821Z" fill="#FF6E6C"/>
<path d="M8.14367 43.477C7.27837 43.477 6.41306 43.4838 5.54776 43.4743C4.8183 43.4661 4.32792 43.0192 4.332 42.3916C4.33607 41.7586 4.82917 41.3158 5.55863 41.313C7.27158 41.3076 8.98588 41.3076 10.7002 41.313C11.4351 41.3158 11.9255 41.745 11.9377 42.378C11.9499 43.0273 11.4555 43.4688 10.688 43.4756C9.84031 43.4824 8.99131 43.477 8.14367 43.477Z" fill="#FF6E6C"/>
<path d="M31.5082 25.0897C33.2293 25.4374 34.6108 26.266 35.6486 27.6408C37.276 29.7979 37.3683 32.838 35.8782 35.0943C34.3405 37.4226 31.5625 38.5148 28.8607 37.8559C26.2213 37.2107 24.2271 34.9367 23.9473 32.2498C23.6009 28.9272 25.6888 25.9713 28.9462 25.2011C29.2926 25.1196 29.3497 24.9511 29.3483 24.6387C29.3375 22.2778 29.3388 19.9169 29.3443 17.556C29.3456 16.8279 29.6961 16.385 30.2911 16.3253C31.011 16.2533 31.5041 16.7396 31.5055 17.5505C31.5109 19.7919 31.5068 22.0346 31.5068 24.276C31.5082 24.53 31.5082 24.784 31.5082 25.0897ZM34.767 31.5122C34.7616 29.1255 32.8082 27.1748 30.4215 27.1707C28.0375 27.168 26.0909 29.116 26.0854 31.5122C26.0787 33.9288 28.0565 35.908 30.4486 35.8795C32.8449 35.8523 34.7738 33.9016 34.767 31.5122Z" fill="#FF6E6C"/>
</svg>
