<svg width="51" height="50" viewBox="0 0 51 50" fill="none" xmlns="http://www.w3.org/2000/svg">
<path d="M37.6083 0C37.9013 0 38.1943 0 38.4873 0C38.9469 0.320329 39.4652 0.583365 39.8584 0.971406C42.9354 4.01584 45.9955 7.07589 49.0399 10.1529C49.4279 10.5461 49.691 11.0631 50.0126 11.5227C50.0126 11.7832 50.0126 12.0436 50.0126 12.304C49.6936 12.7663 49.4254 13.2741 49.0464 13.6804C48.2157 14.5737 47.3367 15.4227 46.463 16.2743C46.2507 16.4813 46.1869 16.648 46.3002 16.9449C47.9826 21.4152 48.2065 25.9688 47.0854 30.6084C44.9407 39.476 37.038 46.4946 27.988 47.5767C24.2183 48.0272 20.5567 47.6509 17.0057 46.298C16.671 46.1704 16.4822 46.2472 16.2517 46.4855C15.4132 47.3501 14.5746 48.2161 13.6917 49.0351C13.2854 49.4127 12.7776 49.6823 12.3153 50C12.0549 50 11.7945 50 11.534 50C11.0744 49.6784 10.5574 49.4166 10.1655 49.0273C7.0885 45.9842 4.02715 42.9228 0.982717 39.8458C0.593374 39.4526 0.331641 38.9356 0.0100098 38.4747C0.0100098 38.2142 0.0100098 37.9538 0.0100098 37.6934C0.329037 37.2324 0.598582 36.7259 0.976206 36.3196C1.79526 35.438 2.65598 34.5943 3.52712 33.7635C3.79927 33.5044 3.81229 33.2947 3.68729 32.964C2.30961 29.3127 1.89292 25.5417 2.4867 21.6912C3.46592 15.3341 6.59369 10.2505 11.7971 6.4756C12.8701 5.69691 14.0641 5.07839 15.2322 4.44424C15.9249 4.06792 16.7114 4.56925 16.6815 5.30887C16.6593 5.83624 16.2999 6.09537 15.8676 6.30632C13.3479 7.53034 11.1343 9.17886 9.33732 11.3248C4.3592 17.2717 3.0284 23.9895 5.2082 31.4183C5.24987 31.5602 5.31628 31.697 5.37487 31.8467C5.46212 31.792 5.49337 31.779 5.51551 31.7569C6.32284 30.9534 7.10543 30.1227 7.94271 29.3531C8.4154 28.9195 8.67974 28.5106 8.43363 27.8491C8.31123 27.5236 8.31774 27.1459 8.28648 26.7892C7.77865 20.9959 9.63421 16.0907 14.0199 12.2767C18.0956 8.73092 22.8953 7.54727 28.2107 8.48872C28.5688 8.55253 28.8045 8.50305 29.061 8.2296C29.7173 7.52904 30.4087 6.86234 31.0911 6.18782C31.3502 5.9326 31.6223 5.6904 31.944 5.39221C31.7421 5.31668 31.6692 5.28673 31.595 5.26199C29.2902 4.48982 26.9229 4.14605 24.4944 4.19423C23.7626 4.20855 23.3394 3.84916 23.325 3.24496C23.3107 2.61733 23.7313 2.25663 24.4918 2.2397C27.4359 2.17459 30.2889 2.65248 33.0417 3.69941C33.3516 3.81661 33.5339 3.76452 33.7553 3.53274C34.3946 2.86213 35.0418 2.19412 35.7241 1.56779C36.3231 1.01698 36.9781 0.52086 37.6083 0ZM2.11299 38.0228C5.40873 41.3199 8.71489 44.626 11.9364 47.8489C23.9058 35.8808 35.9246 23.8632 47.8823 11.9056C44.6334 8.65149 41.3377 5.35054 38.0641 2.07172C26.0843 14.0515 14.0732 26.0626 2.11299 38.0228ZM18.1425 44.6C24.6819 47.0923 34.3855 46.0454 40.8507 38.5033C46.6622 31.723 46.6049 22.9817 44.58 18.1624C43.6177 19.1247 42.6724 20.087 41.7062 21.0271C41.49 21.2368 41.451 21.4282 41.5083 21.7108C41.8572 23.4296 41.9614 25.168 41.7153 26.9037C40.7387 33.7895 36.9729 38.4773 30.4712 40.9084C27.6716 41.9553 24.7574 42.0725 21.8171 41.5256C21.6062 41.4865 21.2911 41.4865 21.1609 41.6115C20.1504 42.5738 19.1712 43.5726 18.1425 44.6ZM10.271 26.81C15.7856 21.2967 21.3197 15.7638 26.8174 10.2675C17.3859 8.97313 9.00136 17.1207 10.271 26.81ZM23.144 39.7338C33.5547 41.0438 41.2088 31.7334 39.6931 23.1848C34.2019 28.6773 28.6756 34.2036 23.144 39.7338Z" fill="#FF6E6C"/>
<path d="M19.9212 2.84386C20.442 2.85819 20.877 3.31133 20.8705 3.83219C20.8639 4.37649 20.3965 4.81272 19.8483 4.78667C19.3144 4.76193 18.9185 4.32571 18.9355 3.78271C18.9524 3.24883 19.3925 2.82954 19.9212 2.84386Z" fill="#FF6E6C"/>
<path d="M15.2179 34.9458C14.4418 34.1345 13.6657 33.3285 12.8949 32.5173C12.3089 31.9014 12.5016 30.9885 13.2868 30.8427C13.5746 30.7893 14.0004 30.8987 14.21 31.0966C15.7687 32.572 17.2935 34.0825 18.8157 35.5943C19.209 35.9836 19.2741 36.4706 19.0553 36.8899C18.834 37.317 18.4394 37.5136 17.856 37.4147C16.4797 37.1803 15.1072 36.9198 13.7334 36.6724C13.6071 36.649 13.4795 36.636 13.2178 36.5982C13.6123 36.9993 13.9209 37.3144 14.2335 37.6282C14.6918 38.0892 15.1606 38.541 15.6098 39.0111C16.0448 39.4656 16.0617 40.0554 15.6736 40.4487C15.2804 40.8471 14.6892 40.8445 14.2413 40.4005C12.693 38.8666 11.1565 37.3222 9.61734 35.7818C9.26967 35.4341 9.17461 35.0291 9.40378 34.5825C9.61734 34.1632 10.0392 34.0043 10.6226 34.1111C12.1084 34.3846 13.5915 34.6619 15.0773 34.9354C15.1359 34.9458 15.201 34.9445 15.2179 34.9458Z" fill="#FF6E6C"/>
<path d="M20.6009 33.7166C18.205 33.714 16.2986 31.809 16.296 29.4117C16.2921 26.9962 18.2167 25.0807 20.6374 25.0925C23.0242 25.1029 24.928 27.0275 24.9215 29.4234C24.9124 31.8142 22.9982 33.7179 20.6009 33.7166ZM22.9643 29.3987C22.9617 28.0913 21.9187 27.047 20.6114 27.0457C19.2962 27.0444 18.2584 28.0744 18.2506 29.3857C18.2427 30.7256 19.2845 31.7673 20.6244 31.7595C21.9356 31.753 22.9669 30.7125 22.9643 29.3987Z" fill="#FF6E6C"/>
<path d="M30.2291 16.4163C30.5859 16.777 30.8906 17.0856 31.2461 17.4476C31.599 17.0712 31.9219 16.704 32.2696 16.3642C32.7253 15.9175 33.3035 15.8915 33.7045 16.2756C34.1199 16.6715 34.0991 17.2666 33.6472 17.7497C33.4806 17.9281 33.3087 18.1025 33.129 18.2666C32.9493 18.4307 32.7553 18.5804 32.5547 18.7458C32.9271 19.1234 33.2332 19.432 33.5886 19.7914C33.9884 19.3695 34.3569 18.9581 34.7515 18.5713C35.2333 18.0973 35.8153 18.0804 36.2216 18.5023C36.6161 18.9112 36.5979 19.4724 36.1448 19.9386C35.5328 20.5688 34.9129 21.1925 34.2801 21.802C33.8113 22.2525 33.2709 22.2525 32.8073 21.7941C31.2695 20.2706 29.7382 18.7406 28.216 17.2028C27.7589 16.7405 27.7641 16.1988 28.216 15.7313C28.8267 15.0998 29.4491 14.4787 30.0793 13.8666C30.5468 13.4135 31.1067 13.3966 31.5143 13.795C31.9323 14.2039 31.9141 14.7821 31.4388 15.2665C31.0534 15.6571 30.6406 16.0256 30.2291 16.4163Z" fill="#FF6E6C"/>
<path d="M34.6525 11.9772C35.0171 12.334 35.3153 12.627 35.7359 13.0398C36.0276 12.7012 36.3231 12.3197 36.6591 11.9746C37.1305 11.4915 37.7151 11.455 38.1279 11.847C38.5537 12.252 38.5225 12.8548 38.042 13.3562C37.7269 13.6843 37.4052 14.0059 37.0875 14.3315C37.0771 14.3419 37.0732 14.3601 37.0797 14.3484C37.3844 14.6661 37.6813 14.9748 38.0459 15.355C38.4144 14.9591 38.7764 14.5424 39.1683 14.1557C39.654 13.6739 40.2231 13.6505 40.6346 14.0619C41.0486 14.476 41.0265 15.0451 40.5525 15.5308C39.9509 16.148 39.3441 16.76 38.723 17.3577C38.2308 17.8317 37.7021 17.8291 37.2177 17.3473C35.6942 15.8355 34.1759 14.3185 32.6654 12.795C32.181 12.3066 32.1797 11.7806 32.655 11.291C33.2657 10.6607 33.8868 10.0383 34.5171 9.42759C34.978 8.98095 35.5445 8.97313 35.9481 9.3781C36.3505 9.78177 36.344 10.3469 35.8921 10.8092C35.4963 11.2167 35.0666 11.5892 34.6525 11.9772Z" fill="#FF6E6C"/>
<path d="M28.0661 23.1015C28.7419 23.7408 29.3305 24.2747 29.8917 24.8372C30.2264 25.1719 30.2772 25.5847 30.0337 26.0014C29.8136 26.3777 29.462 26.5444 29.0401 26.4558C28.8305 26.4115 28.6091 26.2904 28.4568 26.1394C26.9176 24.6185 25.3863 23.0885 23.8628 21.5506C23.3979 21.0818 23.4005 20.5545 23.8563 20.0805C24.4553 19.4594 25.0647 18.8487 25.6858 18.251C26.1142 17.8382 26.7002 17.8382 27.0856 18.2171C27.4723 18.596 27.488 19.1833 27.0713 19.6143C26.6884 20.0089 26.2587 20.3578 25.8681 20.7107C26.2405 21.0897 26.5218 21.3761 26.8877 21.7485C27.1794 21.4243 27.4671 21.074 27.7862 20.7576C28.2562 20.2914 28.8552 20.2758 29.255 20.6873C29.6417 21.0857 29.6131 21.6626 29.1782 22.1262C29.0232 22.2928 28.8643 22.4582 28.6938 22.608C28.5258 22.7603 28.3383 22.8905 28.0661 23.1015Z" fill="#FF6E6C"/>
</svg>
