<svg width="25" height="25" viewBox="0 0 25 25" fill="none" xmlns="http://www.w3.org/2000/svg">
<path d="M23.6111 0H1.38889C1.02053 0 0.667263 0.146329 0.406796 0.406796C0.146329 0.667263 0 1.02053 0 1.38889V23.6111C0 23.9795 0.146329 24.3327 0.406796 24.5932C0.667263 24.8537 1.02053 25 1.38889 25H13.3542V15.3333H10.1069V11.5486H13.3542V8.77083C13.3542 5.54167 15.3264 3.78194 18.2153 3.78194C19.1861 3.77917 20.1583 3.82917 21.125 3.93056V7.29167H19.1319C17.5653 7.29167 17.2597 8.03889 17.2597 9.13194V11.5417H21.0056L20.5194 15.3264H17.2583V25H23.6111C23.9795 25 24.3327 24.8537 24.5932 24.5932C24.8537 24.3327 25 23.9795 25 23.6111V1.38889C25 1.02053 24.8537 0.667263 24.5932 0.406796C24.3327 0.146329 23.9795 0 23.6111 0Z" fill="#006C94"/>
</svg>
